# xmcd
#
# Track frame offsets:
#	150
#	24248
#	59156
#	88724
#	117547
#	151385
#	176636
#	208712
#
# Disc length: 3410 seconds
#
# Revision: 0
# Processed by: cddbd v1.5.2PL0 Copyright (c) Steve Scherf et al.
# Submitted via: EasyCDDAExtractor 4.5.0.2
#
DISCID=6d0d5008
DTITLE=Zongo
DYEAR=2006
DGENRE=Funk
TTITLE0=Coping with Reality
TTITLE1=Chuupacabra
TTITLE2=Going Home
TTITLE3=Never See the Day
TTITLE4=100 - Watt Squid
TTITLE5=No Dogma
TTITLE6=The Last Encore
TTITLE7=Back Shack
EXTD=
EXTT0=
EXTT1=
EXTT2=
EXTT3=
EXTT4=
EXTT5=
EXTT6=
EXTT7=
PLAYORDER=
